<?xml version="1.0" encoding="UTF-8"?>
<svg id="Layer_2" data-name="Layer 2" xmlns="http://www.w3.org/2000/svg" viewBox="0 0 652 944">
  <defs>
    <style>
      .cls-1 {
        fill: #fff;
      }
    </style>
  </defs>
  <path class="cls-1" d="M0,.38C2.01,.26,4.02,.04,6.04,.04c96.15-.02,192.29-.02,288.44-.01q6.52,0,6.52,6.44c0,297.98,0,575.4,.14,832.29,0,5.28-1.5,6.22-6.4,6.21-62.81-.17-125.61-.17-188.42,0-4.81,.01-6.15-1.11-6.14-6.05,.16-85.92,.16-151.29,.01-237.21,0-4.78,1.14-6.23,6.08-6.21,46.14,.19,92.27,.03,138.41,.23,4.9,.02,6.08-1.27,6.07-6.12-.13-171-.14-362.54,0-533.54,0-5.02-1.46-6.01-6.18-6-62.64,.16-125.28,.16-187.91,0-4.82-.01-6.17,1.2-6.17,6.1,.12,277.26,.12,554.52,0,831.78,0,5.05,1.56,6.01,6.26,6.01,179.66-.12,359.33-.12,538.99,0,4.86,0,6.16-1.28,6.16-6.14-.12-277.26-.11-554.52-.02-831.78,0-4.51-1.06-5.98-5.82-5.97-63.65,.16-127.3,.16-190.94,0-4.86-.01-5.76,1.62-5.76,6.03,.1,171,.1,362.54-.03,533.54,0,4.96,1.44,6.11,6.23,6.09,46.47-.18,92.95-.04,139.42-.21,4.88-.02,6.54,.92,6.53,6.28-.19,85.92-.19,151.29-.01,237.21,.01,5.08-1.55,6.08-6.23,5.96-12.28-.32-24.58-.05-36.87-.13-8.46-.05-7.31,1.14-7.32-7.08-.04-68.6-.02-116.66-.02-185.26q0-6.74-6.83-6.74c-29.47,0-58.93,.11-88.4-.11-4.97-.04-6.53,1.06-6.51,6.33,.19,68.77,.13,116.99,.13,185.76q0,6.77-6.8,6.78c-12.97,0-25.93-.11-38.9,.07-3.56,.05-4.94-1.12-4.54-4.6,.14-1.16,.02-2.35,.02-3.53,0-255.54,0-531.62,.02-828.25,0-9.27-1.13-8.16,7.93-8.16,95.98-.03,191.96-.02,287.93-.02q6.9,0,6.92,6.68c0,310.22,0,620.43,0,930.65q0,6.63-6.45,6.64c-213.17,0-426.34,0-639.52-.01-2.01,0-4.02-.22-6.03-.34,0-314.42,0-628.84,0-943.27ZM250.63,710.27c0-26.56-.08-32.58,.09-59.13,.02-3.98-.73-5.51-5.15-5.48-29.96,.2-59.93,.16-89.9,.03-3.88-.02-5.16,.97-5.15,5.05,.14,53.12,.13,85.7,.01,138.82,0,3.86,.89,5.18,4.99,5.15,30.13-.17,60.27-.16,90.4,0,3.73,.02,4.82-.91,4.8-4.73-.17-26.56-.09-53.12-.09-79.68Z"/>
</svg>