<?xml version="1.0" encoding="UTF-8"?>
<svg id="Layer_2" data-name="Layer 2" xmlns="http://www.w3.org/2000/svg" viewBox="0 0 156.23 226.53">
  <g id="Layer_2-2" data-name="Layer 2">
    <path d="M0,.09C.48,.06,.96,0,1.45,0c23.04,0,46.08,0,69.12,0q1.56,0,1.56,1.54c0,71.5,0,138.08,.03,199.72,0,1.27-.36,1.49-1.53,1.49-15.05-.04-30.1-.04-45.15,0-1.15,0-1.47-.27-1.47-1.45,.04-20.62,.04-36.31,0-56.92,0-1.15,.27-1.49,1.46-1.49,11.06,.04,22.11,0,33.17,.05,1.17,0,1.46-.3,1.45-1.47-.03-41.03-.03-87,0-128.03,0-1.21-.35-1.44-1.48-1.44-15.01,.04-30.02,.04-45.03,0-1.15,0-1.48,.29-1.48,1.46,.03,66.53,.03,133.07,0,199.6,0,1.21,.37,1.44,1.5,1.44,43.05-.03,86.1-.03,129.15,0,1.16,0,1.48-.31,1.48-1.47-.03-66.53-.03-133.07,0-199.6,0-1.08-.25-1.43-1.39-1.43-15.25,.04-30.5,.04-45.75,0-1.17,0-1.38,.39-1.38,1.45,.02,41.03,.02,87,0,128.03,0,1.19,.34,1.47,1.49,1.46,11.14-.04,22.27,0,33.41-.05,1.17,0,1.57,.22,1.57,1.51-.05,20.62-.04,36.31,0,56.92,0,1.22-.37,1.46-1.49,1.43-2.94-.08-5.89-.01-8.84-.03-2.03-.01-1.75,.27-1.75-1.7,0-16.46,0-27.99,0-44.46q0-1.62-1.64-1.62c-7.06,0-14.12,.03-21.18-.03-1.19,0-1.56,.26-1.56,1.52,.05,16.5,.03,28.07,.03,44.58q0,1.63-1.63,1.63c-3.11,0-6.21-.03-9.32,.02-.85,.01-1.18-.27-1.09-1.1,.03-.28,0-.56,0-.85,0-61.32,0-127.57,0-198.76,0-2.22-.27-1.96,1.9-1.96,23,0,46,0,69,0q1.65,0,1.66,1.6c0,74.44,0,148.89,0,223.33q0,1.59-1.55,1.59c-51.08,0-102.16,0-153.24,0-.48,0-.96-.05-1.45-.08,0-75.45,0-150.9,0-226.36ZM60.06,170.44c0-6.37-.02-7.82,.02-14.19,0-.96-.17-1.32-1.23-1.32-7.18,.05-14.36,.04-21.54,0-.93,0-1.24,.23-1.23,1.21,.03,12.75,.03,20.56,0,33.31,0,.93,.21,1.24,1.2,1.24,7.22-.04,14.44-.04,21.66,0,.89,0,1.16-.22,1.15-1.14-.04-6.37-.02-12.75-.02-19.12Z"/>
  </g>
</svg>